<?xml version="1.0" standalone="no"?>
<!DOCTYPE svg PUBLIC "-//W3C//DTD SVG 20010904//EN"
 "http://www.w3.org/TR/2001/REC-SVG-20010904/DTD/svg10.dtd">
<svg version="1.0" xmlns="http://www.w3.org/2000/svg"
 width="1024.000000pt" height="1024.000000pt" viewBox="0 0 1024.000000 1024.000000"
 preserveAspectRatio="xMidYMid meet">

<g transform="translate(0.000000,1024.000000) scale(0.100000,-0.100000)"
fill="#274F68" stroke="none">
<path d="M5030 9039 c-52 -30 -83 -81 -87 -142 -10 -127 104 -218 227 -181 52
15 105 65 116 110 12 46 -1 129 -26 164 -47 65 -160 90 -230 49z"/>
<path d="M4481 9003 c-19 -9 -47 -37 -63 -62 -26 -41 -29 -53 -26 -108 6 -97
55 -150 149 -160 151 -15 249 143 168 273 -41 66 -152 94 -228 57z"/>
<path d="M5593 9001 c-70 -32 -100 -96 -95 -198 4 -71 120 -154 194 -139 97
19 165 104 155 192 -10 90 -89 164 -177 164 -19 0 -54 -9 -77 -19z"/>
<path d="M3945 8899 c-42 -16 -93 -66 -106 -107 -28 -84 14 -187 87 -218 51
-21 130 -18 176 8 110 62 112 231 3 298 -40 25 -118 34 -160 19z"/>
<path d="M6181 8890 c-111 -26 -166 -153 -108 -255 60 -106 191 -123 278 -36
45 45 61 94 48 152 -23 101 -119 162 -218 139z"/>
<path d="M3403 8684 c-47 -24 -93 -98 -93 -148 1 -136 141 -227 257 -167 60
30 87 73 91 147 5 73 -13 119 -61 155 -42 31 -146 38 -194 13z"/>
<path d="M6662 8673 c-18 -9 -45 -32 -60 -51 -23 -30 -27 -45 -27 -102 0 -58
4 -71 29 -104 33 -43 95 -75 145 -76 19 0 54 9 78 21 103 50 128 207 46 281
-51 47 -150 61 -211 31z"/>
<path d="M4840 8483 c-311 -22 -679 -108 -985 -230 -495 -196 -985 -559 -1316
-975 -240 -301 -438 -669 -554 -1029 -127 -395 -172 -705 -162 -1109 8 -311
42 -538 123 -830 179 -639 599 -1270 1114 -1676 410 -322 783 -505 1299 -635
273 -69 409 -84 766 -83 332 0 440 9 672 59 622 134 1147 419 1617 875 499
485 817 1079 945 1765 74 394 74 866 0 1224 -102 496 -269 880 -565 1303 -120
170 -200 263 -382 440 -150 145 -260 236 -407 335 -468 316 -1019 511 -1585
563 -104 9 -469 11 -580 3z m597 -318 c484 -51 961 -222 1358 -487 183 -121
278 -200 446 -367 168 -169 245 -262 374 -456 325 -488 486 -1024 486 -1615 0
-365 -44 -635 -162 -984 -369 -1096 -1333 -1876 -2484 -2011 -161 -19 -490
-22 -635 -5 -385 43 -723 144 -1057 314 -483 246 -912 646 -1203 1120 -55 90
-159 298 -203 406 -362 882 -287 1866 206 2685 440 732 1183 1233 2037 1374
254 42 583 52 837 26z"/>
<path d="M4845 6781 c-40 -17 -75 -64 -90 -120 -65 -241 -154 -453 -261 -622
-49 -78 -60 -89 -107 -109 -207 -88 -482 -246 -661 -378 l-95 -71 -198 157
c-269 213 -333 258 -438 308 -154 74 -270 91 -339 51 -54 -31 -78 -78 -73
-144 3 -42 14 -68 60 -140 127 -201 172 -329 171 -493 -1 -150 -34 -242 -179
-488 -61 -104 -70 -167 -33 -221 56 -83 123 -97 261 -57 207 61 404 191 659
435 l102 97 95 -74 c411 -321 935 -548 1446 -627 61 -9 121 -19 135 -22 l25
-5 -26 -21 c-15 -12 -69 -57 -121 -99 -57 -46 -102 -91 -112 -111 -35 -75 -11
-154 63 -204 45 -30 113 -31 161 -2 95 58 316 268 389 372 22 30 42 47 55 47
72 0 320 24 426 40 428 68 837 240 1135 478 90 72 327 304 370 362 83 113 53
194 -144 390 -376 374 -915 609 -1533 671 l-117 12 -29 41 c-115 159 -341 345
-540 445 -111 56 -268 103 -357 107 -44 2 -89 0 -100 -5z m330 -392 c100 -49
303 -184 293 -194 -2 -2 -68 -11 -148 -20 -80 -9 -210 -29 -289 -45 -80 -16
-146 -28 -148 -26 -2 2 12 40 32 85 20 44 50 124 67 176 36 113 19 110 193 24z
m817 -516 c4 -2 -2 -14 -13 -26 -39 -41 -101 -139 -136 -215 -76 -163 -110
-401 -83 -569 24 -149 113 -355 197 -453 l32 -37 -46 -7 c-90 -12 -476 -6
-603 9 -528 65 -1049 278 -1434 585 l-80 63 35 29 c422 358 1036 590 1664 628
122 7 451 3 467 -7z m510 -112 c327 -111 562 -250 776 -460 34 -34 62 -65 62
-70 0 -16 -110 -130 -184 -191 -194 -158 -443 -290 -701 -371 l-89 -28 -52 40
c-142 109 -241 305 -251 495 -9 166 26 302 110 432 52 79 167 192 195 192 11
0 71 -17 134 -39z m-3280 -345 c84 -68 165 -137 181 -153 l27 -29 -127 -125
c-157 -152 -238 -221 -230 -194 47 154 61 353 32 481 -9 44 -23 94 -31 112 -7
17 -11 32 -9 32 3 0 73 -56 157 -124z"/>
<path d="M6565 5449 c-29 -17 -75 -61 -87 -84 -65 -119 25 -265 162 -265 51 0
88 19 128 64 100 114 26 284 -126 293 -32 2 -66 -2 -77 -8z"/>
<path d="M2922 8389 c-62 -31 -97 -87 -96 -153 2 -87 47 -148 129 -171 58 -17
96 -10 155 29 45 30 70 79 70 140 0 71 -29 119 -92 150 -63 32 -109 33 -166 5z"/>
<path d="M7179 8401 c-72 -24 -129 -95 -129 -163 0 -55 42 -131 87 -159 55
-34 136 -33 190 3 103 68 106 226 6 292 -42 28 -113 40 -154 27z"/>
<path d="M2505 8045 c-78 -28 -135 -122 -121 -198 19 -102 114 -163 221 -143
110 21 172 182 105 275 -42 60 -137 90 -205 66z"/>
<path d="M7620 8044 c-75 -22 -120 -83 -120 -163 0 -71 38 -134 102 -167 35
-18 121 -18 157 1 70 36 114 133 92 205 -13 43 -51 94 -85 112 -36 20 -101 25
-146 12z"/>
<path d="M2090 7608 c-140 -71 -113 -288 41 -329 170 -45 301 168 177 288 -66
64 -143 78 -218 41z"/>
<path d="M8007 7615 c-50 -17 -85 -50 -108 -100 -37 -79 -18 -162 47 -211 34
-26 45 -29 113 -29 64 0 81 4 110 24 40 29 71 91 71 146 0 87 -55 154 -141
174 -53 13 -46 13 -92 -4z"/>
<path d="M1820 7138 c-120 -34 -167 -170 -96 -278 33 -50 76 -70 149 -70 147
0 230 177 135 286 -51 58 -121 81 -188 62z"/>
<path d="M8268 7107 c-76 -57 -99 -146 -59 -225 47 -91 143 -127 236 -88 72
31 121 143 95 221 -27 80 -90 125 -179 125 -40 0 -57 -6 -93 -33z"/>
<path d="M1564 6596 c-17 -8 -44 -31 -60 -52 -26 -33 -29 -46 -29 -108 0 -85
24 -127 89 -157 98 -44 193 -10 237 86 35 76 13 170 -52 216 -41 29 -137 37
-185 15z"/>
<path d="M8510 6599 c-118 -47 -134 -233 -27 -313 38 -28 141 -34 191 -11 40
19 74 67 87 123 17 73 -31 170 -97 198 -38 16 -117 17 -154 3z"/>
<path d="M1425 6044 c-45 -23 -59 -39 -85 -93 -65 -139 60 -281 211 -241 75
20 129 96 129 181 0 14 -12 48 -26 76 -19 40 -35 57 -68 72 -50 25 -119 27
-161 5z"/>
<path d="M8670 6044 c-46 -20 -68 -41 -92 -88 -44 -86 -4 -196 86 -237 55 -25
102 -24 156 4 63 31 90 76 90 147 0 139 -120 226 -240 174z"/>
<path d="M1385 5475 c-82 -29 -127 -117 -106 -208 14 -63 36 -94 82 -118 118
-60 258 24 259 154 0 88 -48 154 -128 177 -47 13 -58 12 -107 -5z"/>
<path d="M8700 5458 c-61 -31 -90 -77 -90 -142 0 -116 79 -191 191 -184 69 5
109 32 139 94 17 33 21 57 18 89 -16 136 -137 204 -258 143z"/>
<path d="M1431 4899 c-106 -23 -161 -150 -111 -255 25 -51 48 -72 95 -88 45
-16 134 -5 169 21 72 53 94 175 44 250 -39 60 -120 89 -197 72z"/>
<path d="M8697 4896 c-76 -28 -117 -88 -117 -170 0 -111 66 -177 181 -179 67
-2 97 15 141 79 49 70 46 138 -9 212 -44 58 -127 83 -196 58z"/>
<path d="M1547 4325 c-71 -25 -117 -88 -117 -162 0 -53 54 -142 100 -165 112
-56 250 29 250 155 0 82 -33 135 -105 168 -47 22 -76 23 -128 4z"/>
<path d="M8545 4317 c-110 -62 -118 -235 -15 -303 97 -64 214 -33 261 71 73
160 -94 318 -246 232z"/>
<path d="M1745 3794 c-106 -39 -147 -151 -92 -254 27 -52 60 -78 113 -90 74
-17 146 13 192 80 25 37 31 134 11 173 -43 83 -140 122 -224 91z"/>
<path d="M8381 3800 c-39 -9 -77 -35 -105 -74 -17 -22 -21 -42 -21 -100 0 -64
3 -77 28 -109 36 -48 75 -67 135 -68 62 -2 90 7 125 40 43 39 57 74 57 136 0
66 -18 105 -62 139 -28 20 -101 48 -118 45 -3 -1 -20 -5 -39 -9z"/>
<path d="M2035 3298 c-86 -30 -135 -116 -116 -201 14 -57 57 -116 99 -134 48
-20 139 -14 174 12 53 40 73 83 73 155 0 58 -4 71 -29 104 -48 64 -129 89
-201 64z"/>
<path d="M8083 3299 c-61 -18 -123 -103 -123 -171 0 -37 25 -96 53 -126 34
-37 71 -52 127 -52 103 0 173 70 173 175 0 84 -51 153 -131 175 -43 12 -56 11
-99 -1z"/>
<path d="M2375 2851 c-114 -53 -143 -194 -57 -284 39 -42 75 -57 132 -57 59 0
97 17 133 59 79 95 53 227 -56 280 -53 26 -99 26 -152 2z"/>
<path d="M7734 2860 c-79 -17 -142 -106 -130 -182 8 -47 36 -106 63 -130 85
-77 229 -46 275 59 39 89 7 198 -70 237 -35 17 -98 25 -138 16z"/>
<path d="M2795 2466 c-97 -42 -133 -169 -74 -264 22 -38 106 -82 154 -82 141
1 231 184 144 294 -46 59 -152 83 -224 52z"/>
<path d="M7268 2460 c-60 -32 -83 -74 -83 -151 0 -84 27 -128 103 -166 57 -28
106 -27 163 2 81 42 115 167 67 250 -46 79 -164 110 -250 65z"/>
<path d="M3265 2156 c-58 -26 -105 -101 -105 -168 0 -39 29 -106 57 -130 25
-23 97 -48 137 -48 54 0 117 40 143 89 27 51 31 127 9 169 -43 83 -158 125
-241 88z"/>
<path d="M6810 2148 c-193 -104 -79 -387 134 -333 82 21 126 79 126 167 0 143
-138 231 -260 166z"/>
<path d="M3791 1922 c-66 -26 -104 -78 -109 -151 -6 -77 17 -124 77 -162 130
-83 295 14 278 163 -8 63 -36 108 -85 135 -55 31 -108 36 -161 15z"/>
<path d="M6285 1907 c-68 -39 -105 -115 -91 -191 10 -51 76 -121 130 -136 169
-47 298 146 191 286 -50 65 -154 84 -230 41z"/>
<path d="M4345 1775 c-79 -28 -134 -121 -119 -200 9 -48 54 -108 97 -128 52
-25 136 -22 177 6 53 36 73 70 78 135 7 94 -37 160 -127 190 -43 15 -56 15
-106 -3z"/>
<path d="M5755 1763 c-75 -39 -112 -109 -101 -187 19 -126 150 -192 266 -133
62 32 83 65 88 140 3 51 -1 70 -20 107 -41 78 -155 114 -233 73z"/>
<path d="M4903 1709 c-18 -5 -48 -25 -66 -43 -87 -86 -61 -248 47 -297 73 -33
155 -22 208 28 l27 26 31 -26 c90 -77 232 -50 286 54 19 37 18 123 -2 165 -54
113 -204 137 -286 46 l-34 -37 -23 28 c-42 50 -123 74 -188 56z"/>
</g>
</svg>
