<?xml version="1.0" standalone="no"?>
<!DOCTYPE svg PUBLIC "-//W3C//DTD SVG 20010904//EN"
 "http://www.w3.org/TR/2001/REC-SVG-20010904/DTD/svg10.dtd">
<svg version="1.0" xmlns="http://www.w3.org/2000/svg"
 width="1024.000000pt" height="1024.000000pt" viewBox="0 0 1024.000000 1024.000000"
 preserveAspectRatio="xMidYMid meet">

<g transform="translate(0.000000,1024.000000) scale(0.100000,-0.100000)"
fill="#274F68" stroke="none">
<path d="M4990 9156 c-81 -17 -171 -51 -275 -104 -44 -22 -104 -45 -133 -51
-76 -16 -213 -14 -312 5 -261 47 -435 -8 -641 -203 -148 -140 -239 -184 -418
-204 -291 -33 -424 -124 -604 -414 -83 -135 -109 -156 -327 -266 -133 -66
-152 -80 -230 -158 -104 -104 -154 -198 -201 -371 -50 -189 -71 -222 -249
-400 -125 -125 -163 -169 -192 -225 -65 -126 -72 -165 -73 -400 0 -254 -6
-276 -124 -473 -105 -176 -116 -212 -116 -387 1 -130 3 -147 33 -238 64 -197
65 -274 7 -487 -66 -242 -39 -404 104 -615 120 -176 130 -208 142 -420 10
-184 30 -278 84 -385 37 -74 61 -100 261 -290 104 -99 158 -191 194 -330 59
-235 209 -407 417 -484 95 -34 198 -89 237 -124 16 -15 66 -83 111 -152 179
-271 322 -364 590 -385 95 -8 203 -37 262 -71 24 -14 93 -69 154 -123 125
-112 194 -150 320 -181 105 -25 164 -25 308 0 191 34 275 24 423 -51 43 -22
120 -54 171 -71 80 -28 105 -32 197 -32 119 0 214 25 350 94 84 43 220 80 291
80 26 0 83 -7 126 -15 43 -8 114 -18 158 -21 171 -13 336 53 510 202 99 85
192 141 270 163 22 6 90 16 150 22 251 25 403 119 555 344 121 180 210 253
393 324 105 40 166 81 235 156 81 88 126 171 173 315 62 189 96 247 203 343
141 128 184 174 226 239 75 116 109 247 110 426 0 111 20 232 51 300 10 24 54
97 98 162 108 162 124 205 129 356 3 103 1 135 -18 205 -76 288 -76 294 -6
563 56 215 29 377 -103 611 -28 50 -63 126 -77 170 -23 73 -26 94 -25 249 1
196 -12 276 -63 381 -47 98 -80 140 -187 235 -152 135 -219 246 -264 434 -59
250 -162 374 -414 497 -145 70 -235 131 -284 192 -19 23 -65 91 -102 151 -108
172 -201 250 -367 306 -46 16 -134 36 -196 45 -62 9 -135 23 -161 31 -68 20
-164 86 -246 169 -194 196 -402 263 -672 216 -211 -37 -293 -27 -477 56 -167
75 -231 94 -331 99 -53 2 -117 -2 -155 -10z m345 -383 c189 -90 246 -106 390
-109 74 -2 147 3 190 11 93 19 217 19 290 0 87 -23 144 -58 250 -154 185 -169
298 -216 622 -259 133 -18 211 -79 287 -223 53 -101 118 -191 169 -232 55 -45
211 -140 281 -171 105 -46 196 -128 241 -215 10 -19 28 -76 42 -125 51 -195
168 -383 337 -548 63 -60 106 -111 127 -152 l33 -61 7 -215 c7 -252 25 -341
95 -473 86 -162 106 -208 117 -271 13 -79 0 -182 -39 -306 -24 -76 -27 -100
-27 -230 0 -138 1 -150 34 -245 29 -87 34 -113 34 -200 0 -113 -2 -117 -107
-284 -120 -188 -150 -291 -153 -521 -2 -141 -5 -173 -23 -220 -26 -67 -81
-135 -170 -209 -154 -130 -261 -291 -317 -476 -33 -109 -55 -153 -108 -223
-51 -68 -102 -102 -230 -158 -121 -52 -250 -137 -308 -202 -23 -26 -71 -92
-107 -147 -78 -120 -122 -169 -182 -200 -63 -32 -146 -55 -199 -55 -25 0 -89
-9 -141 -20 -133 -27 -250 -87 -370 -190 -115 -100 -173 -134 -261 -155 -77
-19 -137 -17 -283 10 -86 16 -111 16 -198 6 -124 -15 -181 -32 -288 -86 -127
-64 -217 -89 -299 -83 -57 4 -90 16 -220 77 -223 105 -305 118 -487 80 -73
-15 -124 -20 -194 -17 -121 5 -163 27 -301 154 -154 142 -250 185 -479 214
-245 31 -314 72 -453 272 -136 194 -198 246 -430 357 -105 51 -132 69 -179
120 -67 72 -102 140 -128 249 -22 93 -52 156 -120 257 -43 63 -81 102 -279
289 -29 28 -65 71 -79 96 -26 43 -27 54 -33 230 -5 126 -12 206 -24 250 -26
97 -107 271 -161 347 -94 132 -104 214 -53 423 25 102 31 147 31 245 1 106 -2
132 -30 225 -49 168 -57 220 -43 303 14 84 41 149 100 234 56 83 98 177 123
281 18 77 20 106 15 253 -10 270 6 304 225 501 132 119 224 274 274 463 51
196 115 272 314 375 191 99 326 221 424 382 98 162 189 229 332 248 243 32
286 43 392 100 31 17 113 78 182 135 69 58 150 118 180 133 70 34 176 41 279
18 79 -18 249 -21 356 -6 80 12 146 36 260 97 105 55 172 73 265 70 69 -2 86
-7 205 -64z"/>
<path d="M4730 8486 c-182 -20 -285 -40 -491 -97 -328 -89 -552 -174 -754
-287 -529 -293 -747 -481 -1125 -970 -267 -344 -463 -765 -575 -1237 -77 -323
-100 -633 -75 -1020 21 -317 67 -529 195 -905 87 -258 100 -288 221 -498 121
-210 231 -378 329 -499 152 -189 467 -479 659 -607 486 -323 680 -417 1097
-530 277 -75 318 -82 699 -122 229 -24 529 -4 850 56 120 23 405 102 560 155
194 67 498 230 815 437 167 109 504 423 661 618 145 178 236 325 396 640 162
318 238 569 317 1050 73 444 50 823 -80 1309 -60 223 -122 380 -270 674 -119
239 -180 336 -329 532 -136 177 -290 333 -537 544 -151 129 -211 173 -369 268
-313 189 -492 268 -838 373 -175 53 -301 80 -486 106 -159 22 -699 28 -870 10z
m564 -297 c288 -21 638 -85 842 -154 189 -63 433 -181 694 -335 153 -91 169
-104 350 -266 461 -416 723 -817 927 -1419 111 -329 161 -832 118 -1200 -19
-161 -75 -438 -120 -593 -39 -135 -139 -380 -226 -555 -213 -424 -637 -879
-1077 -1156 -146 -92 -434 -241 -562 -291 -146 -56 -354 -115 -555 -155 -510
-102 -836 -88 -1390 60 -314 84 -621 224 -894 408 -213 144 -289 205 -460 372
-380 370 -615 742 -791 1252 -43 124 -110 432 -135 618 -84 638 67 1337 413
1916 152 254 284 420 513 644 168 164 312 278 471 372 446 266 868 415 1318
467 216 25 375 30 564 15z"/>
<path d="M4882 7938 c-39 -20 -232 -295 -352 -502 -197 -342 -308 -654 -355
-1001 -27 -193 -18 -581 20 -840 l29 -199 -50 -42 c-27 -23 -78 -66 -114 -96
-83 -69 -226 -231 -291 -328 l-50 -75 7 75 c16 149 8 416 -15 570 -74 487
-208 816 -428 1051 -85 90 -145 125 -199 115 -47 -9 -97 -56 -123 -115 -28
-67 -78 -320 -92 -471 -14 -152 -6 -434 16 -580 41 -268 135 -536 281 -802
121 -220 208 -374 227 -401 l19 -28 -90 -187 c-105 -218 -135 -291 -209 -502
-63 -179 -74 -256 -46 -310 38 -73 124 -100 191 -60 75 46 90 78 216 442 42
119 103 281 137 360 190 446 503 935 672 1048 96 65 154 65 186 2 44 -86 78
-276 66 -359 -6 -41 -8 -43 -40 -43 -190 0 -403 -159 -544 -405 -58 -100 -86
-172 -121 -307 -79 -305 -76 -574 10 -796 87 -225 278 -401 473 -435 169 -29
360 44 529 202 152 142 252 321 313 561 71 282 54 602 -44 830 -61 141 -127
225 -236 299 l-70 47 -6 110 c-4 60 -17 149 -29 197 -13 48 -20 90 -17 94 13
12 106 -20 222 -76 115 -56 178 -98 278 -187 l46 -41 -27 -79 c-25 -73 -27
-90 -26 -239 1 -143 4 -170 28 -250 36 -123 132 -312 210 -415 90 -120 228
-249 353 -330 186 -121 345 -174 528 -173 127 0 200 20 294 80 319 204 362
620 110 1048 -128 218 -278 368 -504 506 -161 98 -320 142 -510 143 -111 1
-141 -2 -203 -23 l-72 -24 -113 74 c-209 136 -361 207 -548 254 -137 35 -142
38 -93 63 107 55 301 92 478 92 l110 0 140 -66 c180 -85 278 -123 453 -174
180 -52 367 -93 558 -122 212 -32 558 -32 755 0 231 38 359 82 385 133 37 70
7 146 -86 221 -117 95 -341 221 -516 292 -572 230 -1166 227 -1561 -7 l-57
-34 -210 5 -210 4 38 33 c54 47 143 91 212 105 196 40 467 141 660 246 242
133 415 262 605 453 138 139 208 227 317 400 167 265 198 380 124 460 -25 27
-36 31 -79 31 -28 0 -90 -9 -139 -21 -667 -156 -1188 -493 -1506 -974 -61 -93
-127 -219 -166 -317 -18 -46 -34 -65 -79 -99 -31 -24 -91 -74 -134 -111 -85
-75 -85 -73 -16 53 241 436 364 907 345 1328 -8 174 -31 342 -63 456 -32 112
-55 152 -94 159 -70 14 -86 14 -108 4z m-42 -660 c0 -118 -35 -397 -69 -553
-41 -183 -97 -346 -199 -575 -108 -241 -122 -252 -122 -93 0 326 70 618 246
1020 112 258 124 283 135 283 5 0 9 -37 9 -82z m1633 -253 c-5 -7 -41 -51 -81
-98 -207 -241 -434 -413 -756 -571 -151 -74 -206 -95 -206 -81 0 32 266 306
396 408 156 122 372 254 503 307 42 17 90 37 106 44 34 15 49 11 38 -9z
m-3233 -944 c39 -79 106 -264 134 -375 28 -108 51 -253 65 -411 11 -125 3
-485 -11 -485 -5 0 -31 46 -58 103 -144 300 -221 691 -206 1042 8 182 13 210
33 193 8 -6 27 -37 43 -67z m3141 -471 c136 -13 274 -43 406 -86 119 -40 243
-93 243 -104 0 -5 -52 -11 -116 -15 -136 -9 -349 6 -519 35 -121 21 -568 126
-594 140 -12 6 72 19 219 33 80 8 265 6 361 -3z m-674 -1323 c23 -25 53 -63
67 -85 27 -43 69 -179 60 -193 -13 -21 -64 -39 -95 -32 -40 8 -102 70 -136
136 -35 69 -64 191 -57 237 l6 38 57 -28 c32 -16 76 -49 98 -73z m-1274 -6
c23 -88 -91 -299 -207 -383 -49 -35 -111 -39 -121 -8 -10 30 22 126 65 200 83
140 245 258 263 191z"/>
</g>
</svg>
