<?xml version="1.0" standalone="no"?>
<!DOCTYPE svg PUBLIC "-//W3C//DTD SVG 20010904//EN"
 "http://www.w3.org/TR/2001/REC-SVG-20010904/DTD/svg10.dtd">
<svg version="1.0" xmlns="http://www.w3.org/2000/svg"
 width="1024.000000pt" height="1024.000000pt" viewBox="0 0 1024.000000 1024.000000"
 preserveAspectRatio="xMidYMid meet">

<g transform="translate(0.000000,1024.000000) scale(0.100000,-0.100000)"
fill="#274F68" stroke="none">
<path d="M5065 9044 c-59 -14 -111 -67 -121 -121 -25 -133 58 -230 188 -221
96 7 149 60 156 157 10 133 -93 218 -223 185z"/>
<path d="M4485 8996 c-68 -30 -107 -92 -107 -168 0 -155 205 -228 305 -109 57
68 58 166 4 228 -53 60 -133 79 -202 49z"/>
<path d="M5605 8991 c-46 -21 -79 -54 -94 -94 -28 -72 0 -165 61 -208 48 -35
143 -39 196 -9 53 30 82 83 82 149 0 80 -37 134 -112 166 -49 20 -84 19 -133
-4z"/>
<path d="M3920 8847 c-76 -40 -110 -139 -76 -220 18 -44 78 -95 121 -103 112
-21 215 62 215 171 -1 135 -139 216 -260 152z"/>
<path d="M6136 8847 c-47 -26 -86 -94 -86 -146 1 -51 32 -114 73 -145 80 -61
206 -37 255 49 31 54 27 145 -7 194 -49 68 -160 91 -235 48z"/>
<path d="M3420 8653 c-87 -33 -134 -147 -96 -236 18 -44 78 -95 121 -103 122
-23 223 68 213 191 -8 95 -77 156 -175 154 -26 0 -55 -3 -63 -6z"/>
<path d="M6656 8637 c-58 -33 -79 -67 -84 -135 -8 -114 59 -187 173 -187 74 0
121 26 154 85 30 54 27 140 -8 188 -50 70 -159 93 -235 49z"/>
<path d="M4980 8479 c-599 -23 -1191 -214 -1695 -547 -449 -298 -837 -729
-1095 -1216 -374 -706 -474 -1536 -281 -2321 201 -815 709 -1529 1423 -1999
410 -269 966 -464 1463 -512 39 -3 84 -8 100 -10 17 -2 120 -4 230 -4 190 -1
330 9 455 30 30 5 73 12 95 16 22 3 79 14 127 25 995 218 1795 838 2254 1744
246 488 364 969 366 1495 0 299 -29 546 -99 815 -280 1091 -1110 1981 -2163
2320 -383 123 -781 178 -1180 164z m420 -319 c876 -92 1638 -529 2149 -1234
272 -375 450 -804 520 -1249 30 -187 30 -190 37 -382 21 -593 -132 -1178 -442
-1688 -128 -210 -344 -472 -530 -641 -547 -497 -1224 -767 -1959 -781 -104 -2
-233 1 -285 5 -692 64 -1311 334 -1785 780 -392 369 -660 780 -824 1265 -72
213 -118 429 -141 664 -13 133 -13 439 0 572 69 695 364 1321 855 1815 214
215 379 342 633 488 360 206 737 332 1142 380 137 16 496 20 630 6z"/>
<path d="M5032 7719 c-28 -14 -51 -36 -68 -64 l-25 -43 3 -334 c3 -331 3 -333
26 -366 73 -102 246 -92 302 18 19 37 20 59 20 354 0 199 -4 325 -11 343 -15
40 -48 73 -94 94 -53 24 -100 24 -153 -2z"/>
<path d="M3420 7074 c-42 -18 -77 -49 -96 -86 -20 -39 -18 -127 5 -163 10 -16
115 -128 233 -247 185 -186 221 -218 258 -228 107 -29 208 37 226 146 13 84 1
102 -239 345 -185 188 -229 228 -263 237 -54 16 -81 15 -124 -4z"/>
<path d="M6675 7071 c-54 -26 -449 -423 -470 -473 -55 -134 69 -284 205 -248
39 10 73 40 264 228 138 138 225 232 237 257 24 51 24 106 0 153 -23 46 -46
67 -94 87 -48 20 -93 19 -142 -4z"/>
<path d="M4958 6580 c-351 -44 -677 -221 -897 -486 -226 -272 -332 -582 -318
-933 14 -358 145 -659 397 -912 196 -196 420 -317 710 -381 130 -29 395 -31
520 -5 205 44 401 129 563 244 164 116 338 316 421 482 43 84 95 236 117 341
31 149 31 391 0 540 -94 443 -344 775 -729 970 -98 49 -258 103 -373 125 -99
19 -316 27 -411 15z m437 -364 c372 -110 638 -385 737 -761 29 -113 36 -311
14 -428 -77 -408 -374 -719 -791 -828 -122 -32 -326 -33 -462 -1 -187 43 -387
153 -518 286 -403 408 -400 1059 6 1467 152 153 337 248 569 293 14 2 99 3
190 1 144 -2 177 -6 255 -29z"/>
<path d="M2690 5404 c-74 -32 -113 -90 -113 -169 0 -77 48 -149 116 -174 18
-7 145 -11 343 -11 331 0 358 3 407 48 55 49 72 144 38 217 -22 48 -44 69 -94
90 -53 22 -645 22 -697 -1z"/>
<path d="M6851 5409 c-138 -56 -163 -235 -45 -325 l37 -29 334 -3 c312 -3 336
-2 377 17 126 55 139 242 23 319 l-40 27 -331 2 c-195 1 -341 -2 -355 -8z"/>
<path d="M6345 4120 c-49 -7 -72 -20 -106 -57 -29 -31 -49 -81 -49 -122 0 -78
16 -99 233 -318 115 -117 225 -219 243 -228 40 -19 126 -20 162 -1 91 47 128
157 83 244 -16 31 -447 472 -462 472 -2 0 -18 4 -34 8 -17 4 -48 5 -70 2z"/>
<path d="M3784 4102 c-35 -19 -444 -434 -462 -469 -7 -12 -12 -45 -12 -74 0
-126 119 -211 241 -170 25 8 99 75 256 234 227 228 243 249 243 325 0 29 -26
91 -48 115 -49 54 -156 73 -218 39z"/>
<path d="M5080 3598 c-49 -9 -83 -30 -114 -72 -20 -26 -21 -40 -21 -365 l0
-338 29 -37 c80 -105 235 -93 294 24 21 43 22 53 22 353 0 266 -2 314 -16 344
-33 68 -113 106 -194 91z"/>
<path d="M2951 8370 c-49 -12 -83 -40 -108 -90 -70 -136 49 -289 195 -252 65
17 126 81 136 141 7 45 -5 97 -32 139 -30 46 -125 77 -191 62z"/>
<path d="M7182 8368 c-142 -32 -175 -241 -50 -318 152 -92 330 56 263 217 -36
87 -114 123 -213 101z"/>
<path d="M2479 7997 c-128 -68 -124 -254 7 -317 43 -21 52 -22 101 -12 67 14
108 42 134 95 45 87 5 197 -85 238 -55 25 -104 24 -157 -4z"/>
<path d="M7621 8008 c-80 -22 -123 -80 -124 -161 -2 -132 117 -219 238 -173
142 55 152 255 15 324 -47 24 -75 26 -129 10z"/>
<path d="M2105 7574 c-76 -39 -111 -102 -102 -180 10 -92 80 -154 171 -154
118 0 201 94 183 207 -18 109 -155 178 -252 127z"/>
<path d="M7956 7567 c-51 -28 -86 -93 -86 -157 0 -59 42 -129 93 -153 74 -35
181 -11 225 50 111 156 -67 355 -232 260z"/>
<path d="M1823 7109 c-67 -19 -123 -102 -123 -182 0 -69 67 -150 135 -163 79
-15 144 9 189 69 25 33 34 134 16 177 -17 41 -71 87 -117 99 -44 13 -56 13
-100 0z"/>
<path d="M8335 7115 c-5 -2 -22 -6 -37 -9 -98 -22 -148 -156 -95 -257 34 -63
85 -91 162 -87 101 6 165 73 165 173 0 85 -51 150 -135 174 -42 11 -44 12 -60
6z"/>
<path d="M1580 6583 c-126 -51 -149 -236 -38 -314 43 -31 132 -38 183 -14 109
52 126 228 28 302 -28 22 -48 28 -97 30 -33 1 -68 0 -76 -4z"/>
<path d="M8515 6578 c-84 -46 -122 -140 -91 -222 43 -112 179 -152 272 -81 48
37 67 85 62 157 -5 65 -25 99 -78 136 -37 24 -128 31 -165 10z"/>
<path d="M1409 6017 c-97 -65 -114 -191 -36 -276 68 -74 208 -64 268 20 20 28
24 46 24 106 0 80 -15 110 -75 151 -46 31 -134 31 -181 -1z"/>
<path d="M8642 6021 c-115 -73 -103 -255 22 -312 52 -24 100 -24 152 0 57 26
87 72 92 142 5 69 -16 119 -66 157 -48 37 -151 43 -200 13z"/>
<path d="M1377 5465 c-101 -35 -146 -149 -98 -243 23 -46 46 -67 94 -87 110
-46 225 26 235 149 7 88 -39 157 -122 181 -59 18 -61 18 -109 0z"/>
<path d="M8745 5469 c-73 -21 -119 -95 -113 -180 5 -71 37 -121 94 -149 135
-66 279 53 244 201 -25 101 -124 158 -225 128z"/>
<path d="M1405 4898 c-37 -13 -82 -54 -101 -90 -8 -15 -14 -51 -14 -80 1 -202
277 -244 340 -52 24 73 -11 168 -76 206 -39 23 -110 31 -149 16z"/>
<path d="M8694 4891 c-135 -62 -129 -273 10 -326 116 -45 238 40 238 165 0
101 -82 179 -187 180 -11 0 -38 -9 -61 -19z"/>
<path d="M1505 4334 c-45 -23 -66 -45 -86 -89 -24 -53 -24 -99 2 -153 51 -104
180 -130 270 -55 65 55 80 147 37 226 -42 76 -148 110 -223 71z"/>
<path d="M8581 4332 c-19 -9 -48 -34 -65 -55 -27 -34 -31 -47 -31 -101 0 -52
5 -70 28 -105 96 -144 316 -71 317 105 0 125 -139 213 -249 156z"/>
<path d="M8418 3810 c-130 -23 -183 -189 -91 -291 138 -152 374 17 281 201
-38 73 -104 104 -190 90z"/>
<path d="M1680 3788 c-52 -36 -73 -71 -78 -132 -8 -102 56 -183 153 -194 62
-7 128 20 163 66 24 31 27 44 27 108 0 81 -15 111 -75 152 -25 17 -47 22 -95
22 -48 0 -70 -5 -95 -22z"/>
<path d="M1993 3309 c-74 -21 -134 -124 -119 -202 10 -52 58 -112 105 -131 52
-20 91 -20 139 -1 73 31 112 86 112 160 0 132 -108 211 -237 174z"/>
<path d="M8102 3299 c-79 -39 -115 -145 -78 -232 57 -137 255 -139 317 -3 24
52 24 100 0 151 -45 97 -143 131 -239 84z"/>
<path d="M2325 2851 c-84 -43 -119 -154 -76 -238 86 -169 336 -107 335 82 0
61 -22 105 -70 141 -49 38 -132 44 -189 15z"/>
<path d="M7766 2860 c-64 -19 -116 -95 -116 -167 1 -143 155 -227 276 -152 66
41 92 114 69 201 -26 103 -120 150 -229 118z"/>
<path d="M2755 2461 c-104 -47 -138 -177 -70 -266 36 -47 80 -69 140 -68 59 0
102 20 139 63 121 144 -37 349 -209 271z"/>
<path d="M7345 2465 c-74 -26 -124 -115 -110 -194 16 -89 87 -145 183 -144
128 1 211 137 153 251 -24 47 -50 70 -98 88 -48 17 -78 17 -128 -1z"/>
<path d="M3222 2139 c-121 -60 -132 -238 -18 -309 52 -31 114 -36 168 -12 141
62 143 260 4 323 -54 24 -101 24 -154 -2z"/>
<path d="M6888 2151 c-71 -23 -128 -100 -128 -172 0 -78 69 -160 146 -175 144
-27 255 115 196 249 -34 77 -135 123 -214 98z"/>
<path d="M3745 1891 c-96 -44 -130 -139 -86 -237 59 -130 263 -131 322 -1 23
53 24 101 0 152 -22 49 -48 73 -98 91 -52 18 -91 17 -138 -5z"/>
<path d="M6368 1900 c-70 -21 -128 -98 -128 -170 0 -50 37 -118 81 -147 56
-37 142 -37 199 1 55 36 84 100 78 167 -11 109 -123 181 -230 149z"/>
<path d="M4317 1740 c-115 -35 -164 -182 -92 -276 32 -42 95 -74 145 -74 69 0
146 52 169 113 16 40 14 113 -4 146 -39 76 -135 116 -218 91z"/>
<path d="M5821 1740 c-49 -12 -83 -40 -108 -90 -43 -83 -19 -176 58 -227 34
-22 53 -28 98 -27 31 0 70 8 88 17 114 60 125 232 19 305 -36 25 -105 35 -155
22z"/>
<path d="M4875 1655 c-78 -28 -135 -122 -121 -198 22 -119 161 -177 271 -113
78 46 110 161 64 236 -25 41 -42 55 -88 75 -41 18 -74 18 -126 0z"/>
<path d="M5273 1659 c-92 -28 -148 -152 -109 -242 45 -107 173 -133 263 -54
89 78 85 210 -8 280 -31 23 -100 30 -146 16z"/>
</g>
</svg>
