<?xml version="1.0" standalone="no"?>
<!DOCTYPE svg PUBLIC "-//W3C//DTD SVG 20010904//EN"
 "http://www.w3.org/TR/2001/REC-SVG-20010904/DTD/svg10.dtd">
<svg version="1.0" xmlns="http://www.w3.org/2000/svg"
 width="1024.000000pt" height="1024.000000pt" viewBox="0 0 1024.000000 1024.000000"
 preserveAspectRatio="xMidYMid meet">

<g transform="translate(0.000000,1024.000000) scale(0.100000,-0.100000)"
fill="#274F68" stroke="none">
<path d="M5045 9041 c-48 -22 -69 -44 -90 -94 -51 -123 34 -247 170 -247 154
0 227 181 120 299 -54 59 -128 75 -200 42z"/>
<path d="M4500 9013 c-72 -27 -114 -99 -108 -185 5 -65 25 -99 78 -135 49 -34
142 -32 193 2 114 78 97 257 -30 311 -32 14 -104 18 -133 7z"/>
<path d="M5594 9001 c-131 -60 -131 -257 1 -321 151 -73 307 82 236 235 -22
48 -44 69 -94 90 -48 20 -93 19 -143 -4z"/>
<path d="M3935 8891 c-153 -71 -137 -289 25 -332 178 -47 299 153 175 290 -54
59 -128 75 -200 42z"/>
<path d="M6167 8886 c-48 -18 -74 -41 -98 -88 -34 -66 -17 -161 38 -210 27
-25 87 -48 126 -48 76 0 157 68 171 145 16 82 -47 181 -129 204 -50 14 -61 13
-108 -3z"/>
<path d="M3445 8701 c-47 -12 -72 -28 -102 -68 -24 -32 -28 -46 -28 -104 0
-60 3 -71 30 -105 46 -56 89 -76 157 -72 98 7 160 75 161 178 1 115 -105 199
-218 171z"/>
<path d="M6687 8685 c-101 -35 -146 -149 -98 -243 23 -46 46 -67 94 -87 103
-43 213 20 243 138 18 75 -48 175 -131 196 -54 14 -61 13 -108 -4z"/>
<path d="M4862 8489 c-494 -41 -1028 -200 -1379 -410 -288 -172 -502 -338
-729 -564 -521 -518 -857 -1253 -925 -2019 -18 -201 -6 -543 25 -754 109 -724
450 -1384 983 -1903 300 -292 671 -541 1019 -683 191 -78 456 -157 654 -195
213 -41 286 -46 620 -46 286 1 342 4 470 23 600 93 1132 335 1612 733 92 77
291 271 377 369 372 422 647 978 757 1531 41 211 55 334 61 565 17 655 -132
1230 -462 1775 -164 270 -316 460 -529 665 -173 165 -252 232 -386 323 -634
435 -1426 651 -2168 590z m588 -324 c427 -50 860 -195 1228 -413 498 -296 919
-769 1168 -1314 420 -916 324 -2016 -251 -2878 -111 -167 -195 -270 -340 -419
-436 -447 -962 -737 -1560 -860 -463 -95 -998 -68 -1433 71 -494 157 -850 372
-1226 738 -479 467 -785 1064 -883 1725 -14 94 -18 184 -18 415 0 259 3 312
23 436 103 644 388 1200 852 1665 470 471 1116 774 1785 838 152 14 518 12
655 -4z"/>
<path d="M5914 7666 c-70 -32 -107 -120 -85 -202 16 -59 48 -84 129 -99 111
-21 152 -49 178 -122 7 -21 13 -64 14 -95 0 -54 -2 -58 -23 -58 -41 0 -167
-40 -236 -74 -171 -87 -260 -196 -386 -477 -30 -67 -81 -161 -113 -208 -32
-47 -63 -99 -70 -114 -30 -70 0 -145 71 -177 23 -11 50 -20 61 -20 17 0 18 -6
12 -72 -46 -503 -56 -854 -32 -1113 48 -520 189 -867 454 -1116 141 -133 321
-235 492 -279 127 -33 334 -38 460 -12 378 78 676 353 770 707 11 44 26 133
32 198 10 102 10 135 -4 230 -34 229 -97 384 -292 715 -163 276 -216 405 -261
626 l-22 111 51 6 c108 14 151 52 151 133 0 47 -6 62 -60 146 -33 52 -83 149
-111 216 -119 277 -188 373 -345 474 -56 36 -183 85 -239 92 -24 3 -25 7 -33
93 -9 116 -47 235 -95 305 -47 67 -141 140 -219 170 -73 29 -204 37 -249 16z
m553 -874 c178 -56 320 -229 357 -436 l7 -38 -66 36 c-152 86 -187 99 -266
104 l-76 4 -34 -40 c-18 -22 -46 -69 -60 -104 -15 -34 -31 -61 -36 -59 -4 2
-18 28 -31 58 -33 79 -63 121 -95 134 -53 22 -134 5 -263 -54 -144 -66 -164
-73 -164 -55 1 30 69 179 113 245 79 119 171 187 295 218 76 20 236 13 319
-13z m-422 -693 c42 -64 105 -129 147 -150 25 -13 58 -19 101 -19 53 0 71 5
110 30 39 24 114 111 146 168 8 14 23 10 197 -58 18 -7 23 -20 29 -72 10 -94
53 -281 87 -383 46 -133 100 -245 244 -496 241 -419 294 -630 224 -879 -37
-129 -93 -224 -195 -326 -144 -145 -274 -197 -495 -198 -142 -1 -210 13 -330
70 -315 148 -509 484 -576 999 -31 234 -19 839 24 1209 l7 58 103 34 c56 18
110 38 120 43 25 15 27 14 57 -30z"/>
<path d="M3733 7331 c-67 -31 -76 -61 -71 -213 3 -70 4 -128 4 -128 -1 0 -44
9 -96 20 -108 22 -288 27 -372 9 -92 -20 -149 -103 -127 -184 5 -19 14 -37 20
-40 5 -4 -19 -25 -53 -48 -333 -221 -519 -691 -434 -1092 28 -132 87 -267 169
-390 38 -58 209 -235 226 -235 4 0 12 10 18 23 6 13 45 59 86 103 l76 81 -50
49 c-206 201 -290 467 -233 742 56 273 257 509 517 607 105 39 108 35 41 -45
-112 -133 -123 -246 -33 -311 41 -29 113 -32 153 -6 15 10 39 39 54 65 32 56
133 165 179 193 l33 21 35 -22 c48 -30 120 -112 155 -179 35 -66 75 -94 134
-95 84 -1 142 53 140 132 -1 57 -26 108 -91 188 -85 103 -83 96 -22 78 231
-67 436 -252 525 -472 49 -123 59 -178 58 -332 -1 -163 -15 -241 -63 -340 -20
-41 -26 -62 -18 -65 7 -2 30 -9 52 -15 22 -7 75 -25 117 -41 43 -16 80 -29 83
-29 9 0 62 114 83 180 68 209 67 437 -4 662 -70 223 -221 426 -405 545 -40 26
-56 43 -52 53 3 8 10 27 16 41 30 74 -31 159 -128 179 -85 18 -308 7 -405 -19
-41 -11 -80 -21 -86 -21 -7 0 -13 49 -18 140 -3 77 -10 151 -16 164 -22 58
-123 82 -197 47z"/>
<path d="M4229 5746 c-154 -55 -259 -224 -259 -417 l0 -67 -72 26 c-63 22 -90
25 -193 25 -104 0 -130 -3 -200 -27 -395 -135 -541 -509 -426 -1091 34 -170
103 -448 147 -586 79 -253 226 -421 414 -472 119 -33 261 -26 355 17 l52 23
56 -22 c98 -40 145 -45 364 -39 221 6 254 13 359 71 67 38 157 125 203 197 66
106 107 216 165 451 173 696 149 1031 -93 1280 -177 182 -426 244 -696 173
-74 -19 -87 -20 -95 -8 -29 45 4 137 69 198 53 51 69 93 57 156 -8 44 -63 99
-113 114 -48 14 -49 14 -94 -2z m-461 -732 l31 -6 -24 -32 c-39 -51 -72 -135
-91 -225 -14 -71 -16 -128 -11 -385 4 -260 9 -324 31 -466 32 -203 55 -296
100 -405 l34 -85 -51 0 c-101 1 -178 61 -238 187 -50 104 -170 550 -198 734
-17 116 -22 262 -11 339 18 128 88 246 178 302 65 40 171 58 250 42z m1024
-31 c64 -28 134 -96 167 -161 42 -81 54 -164 48 -322 -7 -171 -24 -276 -77
-498 -93 -385 -154 -518 -263 -573 -35 -18 -60 -21 -217 -22 -171 -1 -179 0
-226 24 -115 59 -195 249 -239 569 -21 151 -32 623 -16 701 27 129 115 248
194 263 77 14 167 -52 219 -162 33 -68 47 -153 48 -287 0 -124 40 -182 132
-192 56 -6 109 17 141 61 20 29 22 40 19 160 -4 201 -35 318 -112 433 l-31 46
78 -7 c50 -5 98 -16 135 -33z"/>
<path d="M2946 8400 c-34 -11 -82 -54 -102 -92 -18 -35 -18 -121 1 -157 49
-95 175 -127 266 -66 97 63 96 227 -1 291 -41 27 -118 39 -164 24z"/>
<path d="M7166 8392 c-71 -25 -108 -74 -114 -152 -4 -50 0 -66 21 -102 48 -82
151 -112 237 -68 54 27 83 72 88 136 6 67 -1 95 -34 134 -51 60 -122 79 -198
52z"/>
<path d="M2485 8036 c-17 -7 -43 -27 -57 -44 -102 -122 -21 -297 137 -296 61
0 105 22 142 71 25 32 28 45 28 107 0 58 -4 77 -23 104 -46 64 -151 91 -227
58z"/>
<path d="M7588 8030 c-77 -41 -108 -135 -73 -225 30 -80 127 -129 211 -106 75
20 134 100 134 181 0 34 -32 100 -61 127 -51 47 -146 57 -211 23z"/>
<path d="M2094 7612 c-160 -75 -123 -310 53 -338 106 -17 203 65 205 174 3
133 -135 221 -258 164z"/>
<path d="M8010 7618 c-52 -15 -90 -46 -111 -92 -65 -142 44 -283 196 -255 95
18 153 98 143 194 -13 110 -122 184 -228 153z"/>
<path d="M1820 7138 c-76 -22 -130 -94 -130 -175 0 -173 229 -239 327 -94 46
67 42 149 -9 207 -51 58 -121 81 -188 62z"/>
<path d="M8295 7126 c-64 -29 -105 -94 -105 -167 0 -146 170 -232 285 -144 48
36 69 80 69 146 1 45 -4 64 -27 98 -47 70 -147 100 -222 67z"/>
<path d="M1580 6603 c-119 -45 -148 -214 -51 -296 71 -59 174 -57 238 5 41 40
57 86 51 150 -9 90 -75 149 -167 147 -31 0 -63 -3 -71 -6z"/>
<path d="M8501 6593 c-67 -33 -106 -132 -81 -207 50 -154 255 -174 325 -32 30
59 31 97 6 151 -21 46 -54 79 -94 94 -41 16 -117 13 -156 -6z"/>
<path d="M1432 6039 c-143 -72 -128 -279 23 -329 84 -28 188 24 216 107 25 78
-8 174 -75 219 -41 26 -115 28 -164 3z"/>
<path d="M8700 6050 c-49 -9 -75 -25 -105 -65 -30 -38 -41 -95 -31 -150 9 -46
67 -110 113 -126 82 -27 181 13 214 85 64 141 -43 284 -191 256z"/>
<path d="M1375 5466 c-47 -21 -93 -79 -100 -129 -29 -193 202 -290 319 -134
31 42 33 141 4 192 -43 73 -144 106 -223 71z"/>
<path d="M8717 5466 c-75 -27 -107 -76 -107 -161 0 -111 65 -180 171 -180 102
0 169 69 169 175 0 79 -46 144 -119 169 -43 14 -67 13 -114 -3z"/>
<path d="M1395 4881 c-61 -37 -79 -67 -83 -135 -7 -115 51 -186 159 -194 49
-4 65 0 103 22 110 64 114 231 7 303 -44 30 -141 32 -186 4z"/>
<path d="M8656 4877 c-55 -31 -89 -96 -83 -158 9 -105 75 -169 175 -169 29 0
63 5 75 11 109 56 137 189 59 281 -51 61 -153 77 -226 35z"/>
<path d="M1534 4321 c-22 -10 -50 -31 -62 -46 -96 -122 6 -312 156 -291 87 12
154 89 154 176 0 133 -127 216 -248 161z"/>
<path d="M8548 4320 c-44 -24 -72 -61 -88 -118 -21 -81 17 -164 92 -201 135
-65 276 43 254 193 -18 116 -153 181 -258 126z"/>
<path d="M1745 3796 c-107 -40 -145 -178 -75 -275 38 -52 89 -74 157 -69 60 5
95 26 130 78 98 143 -47 326 -212 266z"/>
<path d="M8366 3796 c-49 -19 -93 -60 -107 -104 -17 -50 -7 -133 20 -171 71
-100 238 -92 298 14 29 50 30 126 4 175 -39 75 -138 114 -215 86z"/>
<path d="M2025 3296 c-93 -41 -130 -149 -84 -243 25 -51 59 -78 122 -93 145
-37 268 138 190 270 -27 46 -90 80 -148 80 -27 -1 -63 -7 -80 -14z"/>
<path d="M8055 3295 c-68 -37 -97 -84 -98 -160 -2 -192 255 -254 334 -81 36
79 13 169 -56 222 -46 35 -133 44 -180 19z"/>
<path d="M2367 2849 c-126 -66 -123 -256 5 -318 97 -46 190 -15 239 81 78 153
-91 318 -244 237z"/>
<path d="M7700 2848 c-161 -81 -115 -321 64 -336 107 -9 191 70 191 179 0 136
-134 218 -255 157z"/>
<path d="M2830 2482 c-68 -19 -113 -64 -132 -135 -40 -150 131 -272 268 -192
116 68 110 252 -11 309 -42 20 -90 27 -125 18z"/>
<path d="M7308 2480 c-73 -22 -128 -95 -128 -170 0 -114 110 -206 219 -181 81
18 141 93 141 177 -1 84 -52 150 -135 173 -45 12 -59 13 -97 1z"/>
<path d="M3265 2156 c-123 -55 -140 -237 -28 -310 75 -49 159 -46 220 7 129
113 52 318 -120 317 -23 -1 -55 -7 -72 -14z"/>
<path d="M6805 2148 c-122 -71 -125 -235 -6 -315 48 -32 129 -32 185 1 78 46
110 155 68 235 -46 91 -163 128 -247 79z"/>
<path d="M3797 1926 c-141 -52 -159 -247 -31 -322 38 -23 54 -26 107 -22 74 4
117 32 147 93 26 53 25 108 -1 163 -39 79 -138 119 -222 88z"/>
<path d="M6355 1935 c-5 -2 -22 -6 -37 -9 -41 -9 -95 -61 -114 -111 -34 -91 9
-185 105 -228 129 -57 276 70 240 208 -13 49 -51 100 -87 119 -28 14 -89 26
-107 21z"/>
<path d="M4325 1766 c-66 -29 -112 -116 -101 -189 23 -144 186 -203 298 -109
88 74 74 229 -26 287 -49 28 -121 33 -171 11z"/>
<path d="M5753 1761 c-131 -60 -133 -255 -2 -321 120 -62 259 24 259 159 0
137 -130 219 -257 162z"/>
<path d="M4895 1701 c-71 -33 -105 -86 -105 -164 0 -47 27 -113 56 -139 72
-64 191 -62 252 4 l23 25 28 -27 c61 -61 173 -64 238 -7 122 107 59 312 -100
325 -64 5 -126 -22 -153 -67 l-17 -29 -21 31 c-42 63 -126 83 -201 48z"/>
</g>
</svg>
