<?xml version="1.0" standalone="no"?>
<!DOCTYPE svg PUBLIC "-//W3C//DTD SVG 20010904//EN"
 "http://www.w3.org/TR/2001/REC-SVG-20010904/DTD/svg10.dtd">
<svg version="1.0" xmlns="http://www.w3.org/2000/svg"
 width="1024.000000pt" height="1024.000000pt" viewBox="0 0 1024.000000 1024.000000"
 preserveAspectRatio="xMidYMid meet">

<g transform="translate(0.000000,1024.000000) scale(0.100000,-0.100000)"
fill="#274F68" stroke="none">
<path d="M5075 9023 c-68 -17 -133 -114 -120 -182 29 -159 247 -196 316 -53
63 129 -55 269 -196 235z"/>
<path d="M4556 8986 c-181 -67 -135 -316 59 -316 52 0 89 16 125 54 36 39 40
135 8 190 -40 68 -119 98 -192 72z"/>
<path d="M5565 8986 c-51 -23 -87 -70 -92 -120 -7 -60 1 -89 39 -132 59 -66
131 -81 208 -41 105 54 110 205 8 280 -34 26 -122 33 -163 13z"/>
<path d="M4035 8886 c-71 -32 -116 -125 -94 -194 32 -102 146 -149 244 -102
105 51 113 209 13 283 -34 26 -121 33 -163 13z"/>
<path d="M6065 8876 c-41 -18 -83 -69 -90 -110 -21 -111 89 -221 202 -200 46
9 108 65 124 111 14 44 5 107 -23 146 -41 57 -144 83 -213 53z"/>
<path d="M3577 8716 c-80 -22 -117 -71 -117 -154 0 -54 25 -100 73 -136 40
-30 129 -29 179 2 41 25 78 91 78 138 0 16 -10 50 -22 74 -37 71 -106 99 -191
76z"/>
<path d="M6564 8709 c-18 -5 -46 -25 -62 -44 -128 -145 81 -363 228 -238 64
53 77 127 37 203 -38 73 -118 104 -203 79z"/>
<path d="M3079 8477 c-18 -12 -44 -38 -57 -57 -20 -29 -23 -44 -20 -93 7 -95
64 -152 151 -152 111 2 181 71 174 173 -4 59 -25 94 -77 130 -46 31 -124 31
-171 -1z"/>
<path d="M4835 8484 c-16 -2 -73 -9 -125 -15 -764 -87 -1429 -399 -1969 -924
-342 -332 -588 -690 -769 -1120 -191 -453 -272 -885 -259 -1390 9 -329 47
-559 147 -890 129 -427 284 -729 577 -1119 376 -503 958 -910 1613 -1129 347
-116 669 -167 1060 -167 217 0 366 11 545 41 368 60 631 144 960 305 272 132
481 272 730 487 649 559 1085 1407 1166 2269 17 185 7 605 -19 778 -140 926
-648 1735 -1430 2278 -188 131 -507 302 -701 377 -127 49 -359 119 -494 149
-246 55 -369 68 -697 71 -168 2 -318 1 -335 -1z m675 -319 c604 -82 1122 -302
1588 -674 114 -91 333 -315 443 -453 377 -472 601 -1018 669 -1627 12 -109 14
-475 3 -496 -15 -27 -128 -107 -203 -145 -138 -70 -205 -85 -370 -85 -216 0
-299 34 -384 157 -66 97 -57 190 24 245 57 39 95 40 145 4 61 -44 116 -61 194
-61 100 0 135 24 187 127 80 157 81 292 2 453 -32 65 -58 102 -117 160 -134
133 -280 190 -486 190 -229 0 -426 -83 -641 -268 -81 -70 -144 -142 -321 -362
-140 -176 -225 -249 -359 -312 -62 -29 -70 -30 -168 -26 -93 3 -109 7 -170 37
-158 81 -289 292 -326 526 -20 123 14 286 75 360 l24 30 1 -52 c2 -337 326
-586 659 -508 180 43 358 186 450 364 70 136 86 205 86 376 0 179 -18 253 -95
404 -152 297 -439 503 -795 572 -114 23 -335 27 -457 8 -419 -62 -796 -292
-1191 -728 -73 -80 -188 -206 -257 -281 -69 -74 -182 -198 -252 -275 -134
-149 -350 -364 -433 -432 -198 -161 -434 -276 -625 -304 -97 -14 -284 -7 -350
13 l-45 14 -3 79 c-8 205 53 573 139 835 215 657 641 1234 1199 1622 413 287
900 465 1435 523 164 18 561 13 725 -10z m100 -1365 c236 -57 455 -224 555
-422 45 -91 58 -162 53 -285 -4 -96 -7 -109 -46 -187 -108 -217 -328 -300
-473 -179 -70 59 -106 171 -75 231 9 17 50 56 91 87 94 69 118 104 112 166 -5
59 -30 93 -93 124 -109 55 -298 42 -442 -30 -299 -150 -441 -573 -326 -973 92
-320 322 -562 597 -627 82 -19 224 -19 306 1 103 25 255 103 351 181 93 76
213 205 357 385 192 240 365 361 557 389 137 20 251 -15 344 -108 54 -53 91
-120 92 -161 0 -13 -3 -22 -7 -20 -126 65 -285 61 -417 -10 -110 -60 -204
-192 -228 -320 -30 -164 64 -385 219 -515 122 -101 258 -142 473 -142 162 0
294 26 441 86 52 21 98 39 101 39 7 0 -45 -214 -76 -314 -14 -43 -46 -133 -73
-199 l-48 -120 -98 -64 c-124 -81 -342 -195 -444 -232 -144 -53 -272 -76 -428
-76 -152 1 -233 14 -306 51 -58 29 -117 96 -125 143 -9 47 27 115 79 149 34
23 49 26 106 24 153 -6 271 76 271 189 0 138 -174 291 -382 335 -94 20 -377
14 -488 -11 -216 -48 -399 -127 -610 -265 -236 -154 -370 -200 -580 -200 -281
0 -500 120 -541 297 -20 86 26 187 111 244 63 43 94 39 149 -19 115 -119 291
-87 358 67 10 23 15 67 16 121 1 146 -53 258 -193 400 -101 104 -166 142 -297
177 -83 22 -118 26 -228 26 -111 0 -143 -4 -220 -27 -212 -63 -333 -143 -555
-366 -91 -91 -228 -231 -305 -310 -283 -293 -494 -408 -795 -435 -75 -7 -248
9 -263 24 -22 22 -122 422 -151 605 l-14 88 47 -6 c443 -60 819 71 1225 428
86 76 382 386 626 656 374 416 604 630 810 754 135 82 348 157 500 176 107 13
281 4 380 -20z m-1170 -1870 c94 -18 194 -73 220 -121 8 -13 0 -16 -56 -17
-304 -9 -557 -355 -479 -655 44 -171 178 -324 360 -412 132 -64 231 -86 407
-92 175 -6 268 5 416 52 129 41 220 87 372 187 189 125 319 181 498 217 110
23 312 39 311 25 0 -5 -19 -23 -42 -39 -23 -17 -63 -58 -89 -92 -145 -192
-125 -428 50 -601 127 -126 412 -200 669 -173 185 19 415 81 545 147 26 13 48
22 48 19 0 -15 -185 -241 -255 -312 -80 -81 -80 -81 -190 -116 -223 -72 -442
-99 -624 -78 -294 35 -511 136 -738 345 -145 133 -183 136 -339 25 -118 -84
-184 -119 -302 -159 -246 -82 -541 -81 -767 5 -128 48 -201 103 -371 279 -136
140 -165 165 -197 171 -57 11 -106 -1 -146 -35 -72 -61 -203 -143 -279 -175
-243 -102 -493 -110 -765 -24 -94 30 -99 33 -141 88 -88 114 -246 380 -246
413 0 4 47 8 104 8 194 0 379 46 556 137 187 96 359 240 586 488 241 264 338
350 477 425 129 70 276 95 407 70z m-360 -1972 c128 -99 241 -149 450 -198
346 -81 781 -5 1074 189 l60 39 65 -53 c220 -175 408 -266 687 -331 105 -25
139 -28 291 -28 95 -1 169 -4 165 -8 -20 -19 -258 -156 -361 -207 -330 -166
-607 -252 -971 -301 -543 -73 -1077 -8 -1600 197 -358 140 -713 368 -950 608
-69 70 -97 105 -81 100 41 -12 253 -7 351 9 189 31 382 103 505 189 l50 35 90
-87 c50 -48 128 -117 175 -153z"/>
<path d="M6989 8467 c-123 -82 -69 -280 81 -295 57 -5 118 22 152 70 18 25 23
46 23 90 0 63 -19 97 -75 136 -46 31 -134 31 -181 -1z"/>
<path d="M2660 8191 c-42 -22 -80 -89 -80 -140 0 -98 88 -179 180 -166 93 13
153 79 154 167 0 116 -147 197 -254 139z"/>
<path d="M7411 8168 c-55 -37 -73 -69 -73 -127 1 -71 37 -132 95 -160 55 -26
97 -27 148 -1 105 54 115 212 18 281 -50 35 -142 39 -188 7z"/>
<path d="M2290 7848 c-118 -60 -118 -233 0 -295 52 -28 91 -29 146 -4 59 27
87 72 92 146 3 50 0 66 -20 95 -30 44 -92 80 -138 80 -20 0 -56 -10 -80 -22z"/>
<path d="M7800 7823 c-19 -10 -45 -34 -58 -53 -20 -30 -23 -45 -20 -97 4 -70
23 -103 78 -140 40 -28 106 -30 156 -7 103 49 113 208 18 280 -44 34 -126 42
-174 17z"/>
<path d="M1964 7450 c-103 -51 -114 -214 -20 -284 68 -52 161 -41 220 25 127
140 -30 343 -200 259z"/>
<path d="M8174 7441 c-116 -28 -166 -160 -99 -262 44 -68 126 -87 205 -46 52
25 90 88 90 147 0 20 -10 56 -22 80 -34 65 -103 98 -174 81z"/>
<path d="M1702 7023 c-67 -33 -111 -123 -93 -190 12 -42 62 -100 99 -114 39
-15 115 -10 152 10 77 41 103 166 51 240 -46 64 -140 88 -209 54z"/>
<path d="M8405 6995 c-71 -26 -104 -89 -92 -177 6 -48 30 -84 78 -116 28 -20
44 -23 90 -20 94 7 152 66 153 159 1 50 -34 116 -77 144 -35 22 -106 27 -152
10z"/>
<path d="M1481 6543 c-18 -9 -44 -34 -58 -55 -22 -32 -25 -46 -21 -96 7 -98
64 -154 158 -154 175 0 234 228 79 307 -37 20 -116 19 -158 -2z"/>
<path d="M8589 6510 c-24 -12 -44 -35 -58 -63 -35 -73 -25 -136 32 -195 75
-77 201 -59 255 36 37 66 23 148 -34 203 -30 29 -42 33 -97 36 -47 3 -71 -1
-98 -17z"/>
<path d="M1350 6048 c-67 -34 -93 -79 -88 -153 4 -70 24 -103 81 -135 49 -28
133 -24 175 7 99 73 87 230 -22 282 -54 27 -91 26 -146 -1z"/>
<path d="M8766 6030 c-62 -19 -106 -83 -106 -155 0 -158 184 -230 285 -112 41
47 52 94 36 147 -15 52 -47 89 -95 111 -44 20 -75 22 -120 9z"/>
<path d="M1285 5546 c-87 -39 -124 -160 -72 -237 81 -120 260 -97 298 38 14
52 1 123 -29 157 -43 48 -137 68 -197 42z"/>
<path d="M8812 5513 c-95 -47 -111 -196 -29 -274 31 -30 64 -41 121 -40 124 0
194 127 133 241 -41 78 -146 112 -225 73z"/>
<path d="M1269 5017 c-18 -12 -44 -38 -57 -57 -20 -30 -23 -44 -20 -97 3 -55
8 -67 38 -98 41 -42 88 -59 147 -52 57 6 92 31 121 88 59 112 -17 239 -143
239 -38 0 -61 -6 -86 -23z"/>
<path d="M8833 5008 c-74 -15 -132 -109 -117 -189 23 -123 161 -179 259 -105
50 39 68 78 63 142 -10 113 -92 174 -205 152z"/>
<path d="M1333 4510 c-35 -23 -83 -110 -83 -150 0 -46 42 -113 85 -137 80 -45
174 -25 229 50 28 38 29 129 1 176 -32 55 -67 75 -138 78 -50 3 -68 0 -94 -17z"/>
<path d="M8740 4488 c-63 -32 -90 -77 -90 -148 0 -100 62 -165 159 -165 106 1
178 76 169 176 -12 122 -132 192 -238 137z"/>
<path d="M1515 4024 c-50 -17 -81 -48 -101 -100 -45 -119 45 -235 170 -220 57
6 90 27 124 76 28 42 30 120 3 170 -33 63 -126 98 -196 74z"/>
<path d="M8600 3999 c-123 -49 -135 -233 -20 -298 52 -29 126 -28 171 2 47 31
82 101 74 150 -8 57 -41 115 -78 137 -35 22 -105 26 -147 9z"/>
<path d="M1687 3548 c-50 -29 -92 -112 -84 -165 15 -91 90 -149 184 -141 44 4
60 11 88 38 62 61 71 145 22 219 -46 70 -137 91 -210 49z"/>
<path d="M8369 3517 c-19 -12 -45 -43 -58 -70 -32 -65 -24 -123 26 -178 63
-70 151 -76 220 -16 90 79 83 197 -16 264 -47 31 -125 32 -172 0z"/>
<path d="M1954 3111 c-75 -34 -116 -147 -80 -222 38 -79 165 -116 235 -67 81
55 99 125 57 212 -43 87 -124 117 -212 77z"/>
<path d="M8124 3090 c-28 -11 -82 -75 -90 -106 -10 -40 2 -114 23 -143 24 -32
97 -71 136 -71 71 0 154 76 164 149 7 53 -27 123 -75 156 -38 26 -113 33 -158
15z"/>
<path d="M2285 2715 c-136 -49 -152 -240 -26 -305 159 -81 320 114 210 254
-42 53 -119 75 -184 51z"/>
<path d="M7803 2691 c-158 -72 -103 -311 72 -311 88 0 154 60 162 147 6 67
-27 129 -87 160 -52 28 -91 29 -147 4z"/>
<path d="M2642 2363 c-93 -46 -119 -170 -51 -248 80 -91 217 -77 270 28 72
139 -78 290 -219 220z"/>
<path d="M7435 2356 c-86 -38 -130 -149 -90 -225 20 -40 69 -78 115 -92 33
-10 47 -9 84 5 115 44 151 174 73 263 -52 59 -119 77 -182 49z"/>
<path d="M3053 2065 c-17 -7 -43 -31 -58 -53 -51 -78 -43 -155 25 -216 46 -41
74 -50 135 -44 114 13 174 141 115 246 -40 71 -138 102 -217 67z"/>
<path d="M7004 2046 c-81 -36 -115 -142 -72 -226 26 -50 89 -90 143 -90 93 0
174 94 160 186 -16 106 -133 172 -231 130z"/>
<path d="M3537 1836 c-21 -8 -48 -22 -59 -33 -27 -23 -58 -90 -58 -126 0 -46
36 -104 83 -132 127 -74 284 37 247 174 -26 96 -123 150 -213 117z"/>
<path d="M6529 1797 c-104 -70 -108 -215 -7 -277 68 -41 137 -35 200 18 59 50
72 117 37 189 -41 85 -156 120 -230 70z"/>
<path d="M3981 1638 c-70 -48 -93 -152 -48 -219 70 -105 206 -108 281 -6 29
40 29 134 0 173 -37 51 -70 68 -137 72 -52 3 -67 0 -96 -20z"/>
<path d="M6044 1641 c-73 -33 -110 -124 -79 -197 22 -53 50 -80 101 -100 75
-29 163 4 204 77 26 48 25 96 -3 150 -43 81 -135 110 -223 70z"/>
<path d="M4520 1553 c-70 -27 -116 -106 -105 -181 9 -60 72 -127 128 -137 83
-16 157 21 189 92 51 115 -28 234 -154 232 -23 0 -50 -3 -58 -6z"/>
<path d="M5545 1546 c-48 -21 -93 -79 -101 -131 -14 -96 69 -185 173 -185 141
0 213 161 120 267 -52 60 -125 78 -192 49z"/>
<path d="M5040 1523 c-60 -24 -109 -95 -110 -157 0 -52 38 -114 86 -142 37
-22 54 -26 98 -22 160 13 207 203 74 301 -27 21 -118 33 -148 20z"/>
</g>
</svg>
