<?xml version="1.0" encoding="UTF-8" standalone="no"?><!DOCTYPE svg PUBLIC "-//W3C//DTD SVG 1.1//EN" "http://www.w3.org/Graphics/SVG/1.1/DTD/svg11.dtd"><svg width="100%" height="100%" viewBox="0 0 829 110" version="1.1" xmlns="http://www.w3.org/2000/svg" xmlns:xlink="http://www.w3.org/1999/xlink" xml:space="preserve" xmlns:serif="http://www.serif.com/" style="fill-rule:evenodd;clip-rule:evenodd;stroke-linejoin:round;stroke-miterlimit:2;"><g><path d="M744.031,26.011c-22.504,19.523 -7.87,58.487 -24.822,75.197c-1.159,1.142 -11.223,5.466 -5.261,-4.441c18.606,-30.92 -3.765,-60.665 34.373,-82.593c13.614,-7.828 37.778,-6.79 48.789,3.744c29.297,28.03 4.844,45.218 -6.614,44.982c-18.446,-0.381 -21.248,-22.46 -10.789,-15.687c10.361,6.71 12.009,-15.028 -4.208,-12.721c-20.304,2.888 -21.937,41.061 25.017,58.967c1.416,0.54 22.979,7.307 16.997,9.071c-1.244,0.367 -41.615,1.029 -43.978,-0.104c-33.021,-15.826 -29.857,-38.666 -31.745,-28.86c-0.189,0.981 3.79,14.949 8.017,19.668c7.598,8.484 8.558,9.718 6.963,9.725c-29.946,0.135 -31.919,-0.058 -31.028,-2.383c7.593,-19.817 6.675,-20 9.731,-41.079c5.246,-36.189 35.729,-32.002 46.006,-31.734c7.706,0.2 22.61,16.12 6.224,26.018c-10.646,6.43 23.984,3.57 14.386,-19.083c-7.552,-17.824 -37.978,-27.808 -58.058,-8.687l18.966,51.074c-13.925,-18.495 -8.909,-30.174 -8.371,-34.605c1.542,-12.694 -27.583,34.611 30.915,54.722c21.997,7.562 -7.77,-2.223 -22.544,-20.118l-18.966,-51.074l-0,0.001Z" style="fill:#274f68;"/><path d="M356.03,98.921c-0.043,-0.03 -0.067,-0.058 -0.093,-0.092c-0.054,-0.073 -0.268,-0.327 -0.316,-0.413c-6.043,-10.68 9.033,-15.489 3.124,-29.014c-2.529,-5.787 4.784,-2.279 9.058,-9.739c12.219,-21.327 11.236,-21.752 24.241,-42.466c11.961,-19.051 15.778,-1.559 22.721,18.209c21.052,59.94 23.052,60.725 19.978,64.295c-9.304,10.806 -20.097,-23.574 -21.618,-27.018c-0.429,-0.972 -0.877,-1.835 -35.658,2.59c-7.521,0.957 -7.677,31.404 -20.313,24.469c-0.304,-0.167 -0.535,-0.358 -0.839,-0.591c-0.078,-0.06 -0.203,-0.172 -0.285,-0.229l39.975,-64.731c-1.797,2.671 -14.891,25.892 -12.505,27.308c0.102,0.061 23.672,-1.664 24.412,-3.825c0.28,-0.818 -6.422,-29.856 -10.308,-26.073c-0.05,0.048 -0.078,0.086 -0.129,0.169c-0.127,0.21 -0.393,0.712 -1.47,2.421l-39.975,64.731Z" style="fill:#274f68;"/><path d="M614.011,100.007c-0.731,0.399 -7.505,4.097 -9.378,-4.526c-1.41,-6.488 9.065,-14.455 5.102,-25.085c-2.86,-7.673 6.049,-5.253 7.353,-7.275c7.895,-12.241 31.095,-71.187 40.557,-48.686c2.581,6.137 1.178,6.597 28.842,78.069c3.164,8.174 -7.569,15.568 -14.341,-0.857c-8.025,-19.462 -7.865,-20.164 -9.65,-20.118c-5.443,0.138 -32.263,3.307 -34.901,4.218c-4.282,1.479 -3.611,9.169 -13.584,24.26l32.025,-64.777c-13.203,23.894 -12.765,26.004 -10.526,25.952c23.38,-0.539 23.891,-2.72 23.533,-4.604c-0.028,-0.148 -7.268,-26.952 -10.286,-25.609c-0.292,0.13 -0.215,0.154 -2.722,4.261l-32.024,64.777Z" style="fill:#274f68;"/><path d="M227.995,13.916c11.325,-13.449 14.723,4.15 22.691,27.518c14.503,42.529 21.064,53.367 18.027,57.219c-10.372,13.156 -19.649,-24.344 -21.317,-26.06c-2.512,-2.586 -36.263,2.448 -36.992,2.635c-3.867,0.991 -8.086,26.442 -15.943,25.59c-14.375,-1.56 3.196,-24.267 0.173,-28.41c-5.286,-7.244 0.853,-7.53 2.772,-8.207c6.868,-2.421 17.152,-32.528 30.588,-50.285l0.041,23.304c-12.299,22.11 -11.599,24.12 -9.531,24.052c23.743,-0.785 24.112,-2.821 23.864,-4.752c-0.203,-1.582 -8.215,-25.176 -9.086,-25.708c-1.6,-0.976 -4.209,4.715 -5.247,6.408l-0.041,-23.304l0.001,0Z" style="fill:#274f68;"/><path d="M171.001,8.581c0.126,0.096 0.231,0.196 0.397,0.386c0.255,0.292 0.522,0.583 0.628,0.813c0.013,0.029 0.046,0.097 0.05,0.11c1.791,5.374 1.902,7.586 -0.152,76.619c-0.121,4.061 2.257,14.992 -6.466,14.307c-10.955,-0.86 -2.14,-39.142 -7.971,-39.073c-1.592,0.019 -46.349,3.729 -48.184,7.652c-2.904,6.207 2.294,35.63 -9.835,32.218c-3.486,-0.981 -4.686,-2.059 -3.711,-45.112c0.853,-37.699 -1.138,-51.649 8.61,-48.62c5.576,1.733 4.564,7.616 4.6,40.617c0.001,0.505 0.007,6.22 1.528,6.123c3.312,-0.21 3.194,-0.797 41.071,-5.791c6.45,-0.85 7.535,0.5 8.285,-2.222c0.975,-3.536 -2.487,-48.405 11.151,-38.027Z" style="fill:#274f68;"/><path d="M547.052,40.985c11.159,9.459 52.04,5.381 46.099,40.44c-1.132,6.68 -10.441,18.76 -26.679,20.802c-32.869,4.133 -48.5,-17.075 -36.972,-20.723c5.713,-1.808 21.744,17.351 44.834,4.724c8.968,-4.904 9.643,-20.018 -3.761,-23.943c-11.022,-3.228 -62.669,-11.475 -30.285,-43.002c2.515,-2.448 14.808,-14.416 43.081,-8.286c11.234,2.435 11.202,12.371 0.119,11.785c-2.253,-0.119 -33.537,-6.218 -38.921,10.736c-1.177,3.707 2.045,7.017 2.484,7.468l0.001,-0.001Z" style="fill:#274f68;"/><path d="M497.971,83.999c0.736,-0.823 5.884,-6.584 3.28,-13.408c-5.729,-15.016 -65.084,-11.498 -46.341,-43.834c14.689,-25.342 57.833,-18.736 58.464,-9.246c0.889,13.37 -31.136,-6.105 -45.988,12.905c-15.067,19.285 43.539,11.304 47.36,41.057c5.258,40.947 -67.432,35.605 -67.66,16.034c-0.15,-12.934 17.098,0.111 18.564,0.645c20.06,7.302 31.983,-3.887 32.32,-4.152l0.001,-0.001Z" style="fill:#274f68;"/><path d="M83.549,12.681c0.075,0.049 0.223,0.175 0.364,0.304c0.027,0.025 0.123,0.119 0.149,0.143c0.117,0.11 0.15,0.145 0.178,0.186c0.083,0.125 0.167,0.245 0.246,0.365c8.385,12.783 -19.124,8.883 -32.967,9.027c-5.742,0.06 1.776,4.232 -1.221,71.773c-0.384,8.662 -11.266,9.36 -11.864,-0.976c-0.677,-11.709 -0.307,-68.14 -3.048,-69.738c-2.32,-1.353 -35.423,2.75 -29.599,-10.117c1.809,-3.996 3.658,-4.516 46.709,-3.957c23.94,0.311 27.365,0.593 31.052,2.989Z" style="fill:#274f68;"/><path d="M342.086,87.969c0.088,0.056 0.16,0.103 0.22,0.141c0.015,0.01 0.03,0.019 0.043,0.028c0.16,0.123 0.165,0.129 0.168,0.132c0.125,0.127 0.179,0.214 0.24,0.301c8.368,11.957 -9.136,13.675 -34.249,15.078c-16.663,0.931 -23.001,0.109 -23.654,-8.202c-0.457,-5.823 -1.119,-82.393 2.64,-85.954c1.984,-1.879 9.466,-2.828 10.193,3.989c1.131,10.609 -1.192,75.486 0.952,76.662c4.216,2.313 36.166,-6.752 43.448,-2.175Z" style="fill:#274f68;"/></g></svg>