<?xml version="1.0" standalone="no"?>
<!DOCTYPE svg PUBLIC "-//W3C//DTD SVG 20010904//EN"
 "http://www.w3.org/TR/2001/REC-SVG-20010904/DTD/svg10.dtd">
<svg version="1.0" xmlns="http://www.w3.org/2000/svg"
 width="1024.000000pt" height="1024.000000pt" viewBox="0 0 1024.000000 1024.000000"
 preserveAspectRatio="xMidYMid meet">

<g transform="translate(0.000000,1024.000000) scale(0.100000,-0.100000)"
fill="#274F68" stroke="none">
<path d="M1980 5547 c-13 -7 -27 -24 -31 -39 -4 -14 -8 -216 -10 -448 -4 -408
-3 -422 15 -436 28 -20 60 -17 81 6 16 18 19 43 23 166 4 125 7 146 22 154 22
12 344 58 430 62 l65 3 3 -179 c2 -150 5 -183 19 -198 18 -20 73 -24 91 -6 8
8 12 72 13 218 1 113 4 306 8 430 4 124 3 235 -1 247 -11 35 -55 41 -84 12
-32 -32 -44 -103 -44 -260 l0 -128 -42 -5 c-278 -36 -427 -57 -445 -62 l-23
-6 0 219 c0 197 -2 221 -17 235 -28 23 -48 27 -73 15z"/>
<path d="M3854 5536 c-18 -14 -19 -34 -26 -448 -7 -486 -9 -469 64 -489 85
-23 449 10 505 46 28 19 36 46 23 79 -16 42 -46 47 -162 26 -56 -10 -148 -20
-203 -22 l-100 -3 4 393 c3 365 2 394 -14 412 -21 23 -63 26 -91 6z"/>
<path d="M1053 5513 c-29 -28 -29 -64 -2 -89 18 -16 42 -20 158 -24 l136 -5 7
-120 c3 -66 7 -232 9 -369 2 -227 3 -250 20 -267 23 -23 58 -24 85 -5 18 14
19 29 19 283 0 147 -2 318 -4 378 l-5 110 163 -4 c144 -3 164 -1 181 14 38 34
20 87 -36 105 -24 8 -144 12 -372 13 -335 2 -337 2 -359 -20z"/>
<path d="M3276 5508 c-41 -42 -123 -181 -217 -370 -73 -146 -73 -147 -112
-153 -47 -9 -56 -28 -29 -65 l21 -28 -39 -95 c-22 -53 -40 -104 -40 -114 0
-27 41 -63 73 -63 30 0 48 30 106 176 l32 82 77 11 c119 17 293 31 303 25 5
-3 9 -10 9 -15 0 -29 84 -219 111 -251 35 -44 57 -47 87 -15 29 30 28 42 -8
121 -16 37 -74 198 -129 359 -54 161 -109 318 -121 350 -32 85 -70 99 -124 45z
m89 -316 c25 -73 45 -137 45 -142 0 -5 -19 -11 -42 -14 -152 -18 -222 -25
-225 -22 -6 5 55 135 109 234 28 51 55 89 60 84 4 -4 28 -67 53 -140z"/>
<path d="M4958 5530 c-31 -19 -146 -203 -230 -370 -81 -162 -84 -165 -121
-174 -46 -10 -55 -27 -33 -61 22 -33 21 -37 -19 -135 -19 -47 -35 -95 -35
-107 0 -32 34 -63 70 -63 34 0 40 9 100 157 22 53 41 97 42 99 2 1 68 9 148
18 80 9 163 18 186 20 l40 5 42 -108 c65 -167 123 -230 171 -187 31 28 31 52
0 117 -16 33 -81 212 -144 397 -63 184 -123 349 -133 366 -19 33 -54 44 -84
26z m30 -227 c25 -62 83 -255 79 -259 -3 -3 -47 -9 -98 -14 -52 -6 -111 -12
-131 -16 -21 -3 -38 -3 -38 -1 0 3 20 49 45 102 50 107 112 215 125 215 4 0
12 -12 18 -27z"/>
<path d="M5733 5520 c-155 -55 -261 -194 -232 -302 22 -83 108 -138 279 -178
169 -39 221 -76 222 -161 1 -68 -50 -120 -142 -144 -107 -29 -200 -13 -289 48
-61 43 -73 45 -101 17 -87 -87 122 -210 335 -197 188 12 309 108 322 257 7 75
-10 123 -64 181 -52 55 -101 78 -247 115 -118 29 -166 55 -181 98 -23 66 76
151 190 163 31 3 94 0 140 -7 45 -7 94 -10 108 -6 59 14 53 86 -8 106 -37 12
-181 30 -240 30 -22 -1 -64 -9 -92 -20z"/>
<path d="M6533 5526 c-68 -22 -127 -61 -181 -121 -87 -94 -95 -183 -24 -258
41 -44 111 -75 230 -102 59 -14 124 -33 144 -41 132 -58 119 -209 -21 -259
-114 -40 -222 -28 -315 35 -65 45 -85 48 -109 22 -49 -54 12 -133 134 -173
103 -33 258 -34 338 0 73 30 125 73 159 129 23 40 27 58 27 122 0 150 -76 220
-299 274 -117 29 -139 37 -173 69 -59 54 1 150 114 183 56 16 78 16 244 -2 70
-8 99 6 99 45 0 56 -56 77 -227 86 -69 4 -111 1 -140 -9z"/>
<path d="M7450 5513 c-42 -39 -128 -181 -220 -365 l-80 -156 -40 -7 c-32 -5
-40 -11 -40 -29 0 -12 7 -32 16 -44 14 -20 13 -28 -19 -109 -50 -126 -50 -126
-27 -155 51 -66 88 -38 149 114 26 64 50 109 59 112 19 6 225 32 313 39 l56 5
38 -96 c20 -54 48 -116 61 -140 45 -77 99 -91 129 -33 13 26 12 33 -16 92 -17
35 -55 134 -84 219 -150 431 -196 556 -212 567 -26 20 -50 16 -83 -14z m50
-228 c27 -64 81 -238 75 -244 -8 -7 -258 -31 -264 -25 -8 8 149 314 160 314 6
0 18 -20 29 -45z"/>
<path d="M8557 5526 c-131 -38 -242 -131 -298 -250 -31 -66 -31 -66 -58 -357
-11 -114 -34 -189 -80 -258 -34 -50 -32 -61 8 -61 33 0 50 17 84 85 43 86 57
154 67 310 9 159 22 218 63 287 98 167 323 242 492 164 101 -46 185 -152 185
-234 0 -77 -57 -141 -135 -149 -52 -6 -67 11 -26 31 43 22 71 63 71 103 0 49
-34 107 -77 134 -35 22 -48 24 -150 22 -145 -3 -201 -23 -270 -96 -66 -69 -90
-136 -108 -300 -21 -185 -35 -236 -93 -349 -2 -5 72 -8 164 -8 l168 0 -40 43
c-23 23 -50 56 -62 72 -26 39 -62 146 -62 182 1 23 7 16 37 -42 45 -87 128
-169 222 -219 l69 -36 222 0 c198 0 221 2 218 16 -2 11 -38 28 -106 50 -214
70 -368 179 -432 306 -76 153 -10 318 128 318 79 0 135 -79 91 -126 -27 -29
-48 -30 -77 -4 -26 24 -38 25 -46 4 -40 -103 115 -201 237 -150 74 30 137 143
124 222 -16 98 -110 214 -213 265 -58 29 -76 33 -167 35 -66 2 -119 -1 -150
-10z m-38 -369 c-11 -57 -10 -75 6 -132 33 -124 134 -243 277 -326 38 -22 68
-43 65 -45 -2 -2 -36 7 -75 20 -89 31 -198 100 -240 154 -74 92 -109 225 -82
308 13 41 49 98 57 91 2 -3 -2 -34 -8 -70z"/>
</g>
</svg>
