<svg xmlns:xlink="http://www.w3.org/1999/xlink" xmlns="http://www.w3.org/2000/svg" aria-hidden="true" focusable="false" role="presentation" class="icon icon-user" viewBox="0 0 192 192" width="192"  height="192" ><path d="M96 168c39.765 0 72-32.235 72-72 0-39.764-32.235-72-72-72-39.764 0-72 32.236-72 72 0 39.765 32.236 72 72 72Z" stroke="#000000" stroke-linecap="round" stroke-linejoin="round" fill="none" stroke-width="12px"></path><path d="M96 120c16.569 0 30-13.431 30-30 0-16.569-13.431-30-30-30-16.569 0-30 13.431-30 30 0 16.569 13.431 30 30 30Z" stroke="#000000" stroke-linecap="round" stroke-linejoin="round" fill="none" stroke-width="12px"></path><path d="M47.85 149.55a54.002 54.002 0 0 1 76.399-21.577 54.005 54.005 0 0 1 19.901 21.577" stroke="#000000" stroke-linecap="round" stroke-linejoin="round" fill="none" stroke-width="12px"></path></svg>